<svg width="57" height="54" viewBox="0 0 57 54" fill="none" xmlns="http://www.w3.org/2000/svg">
<path fill-rule="evenodd" clip-rule="evenodd" d="M28.3417 0C12.6917 0 0 12.0593 0 26.9134C0 41.7766 12.6917 53.8361 28.3417 53.8361C43.8962 53.8361 56.5879 41.7766 56.5879 26.9134C56.5879 12.0593 43.8962 0 28.3417 0ZM28.3417 5.29925C40.8425 5.29925 51.0532 14.9811 51.0532 26.9134C51.0532 38.8548 40.8425 48.5368 28.3417 48.5368C15.7454 48.5368 5.53474 38.8548 5.53474 26.9134C5.53474 14.9811 15.7454 5.29925 28.3417 5.29925ZM30.5365 39.0545H25.4789V43.8727H30.5365V39.0545ZM23.4749 21.4237C23.4749 19.0463 25.4789 17.1135 27.96 17.1135C30.4411 17.1135 32.5404 19.0463 32.5404 21.4237C32.5404 22.7031 31.8724 23.5924 31.109 24.3456C30.4411 25.0715 29.5822 25.6885 28.8188 26.3055C26.8148 27.9389 25.3834 29.6719 25.3834 31.8587V34.3179H30.5365V31.8587C30.5365 31.396 30.9182 31.1056 31.2999 30.7608C31.8724 30.2345 32.5404 29.7356 33.2084 29.1911C35.4987 27.3128 37.6935 25.0442 37.6935 21.4237C37.6935 16.3331 33.3038 12.1955 27.96 12.1955C22.6161 12.1955 18.2265 16.3331 18.2265 21.4237V23.8828H23.4749V21.4237Z" fill="black"/>
</svg>
