<svg width="54" height="53" viewBox="0 0 54 53" fill="none" xmlns="http://www.w3.org/2000/svg">
<path fill-rule="evenodd" clip-rule="evenodd" d="M17.2625 35.1163H13.8175C8.84574 35.1163 4.80935 38.9547 4.80935 43.6822C4.80935 48.4098 8.84574 52.2481 13.8175 52.2481C18.7892 52.2481 22.8263 48.4098 22.8263 43.6822C22.8263 43.6822 22.8263 25.2531 22.8263 21.7868C22.8263 21.6779 22.7592 21.578 22.6638 21.5327C22.5588 21.4782 22.4349 21.4872 22.3395 21.5507C21.2039 22.2857 18.3791 24.1097 17.5108 24.6632C17.3581 24.763 17.2625 24.9354 17.2625 25.1169C17.2625 26.7956 17.2625 35.1163 17.2625 35.1163ZM47.5984 35.1163H44.1541C39.1824 35.1163 35.1453 38.9547 35.1453 43.6822C35.1453 48.4098 39.1824 52.2481 44.1541 52.2481C49.1259 52.2481 53.1623 48.4098 53.1623 43.6822C53.1623 43.6822 53.1623 10.6258 53.1623 7.00523C53.1623 6.92356 53.1241 6.8419 53.0668 6.77838C53 6.71486 52.914 6.68764 52.8186 6.68764C50.0417 6.68764 30.9277 6.68764 28.0554 6.68764C27.855 6.68764 27.6931 6.83275 27.6931 7.0233C27.6931 7.98515 27.6931 10.6802 27.6931 11.633C27.6931 11.7237 27.7306 11.8144 27.7974 11.8779C27.8642 11.9414 27.96 11.9777 28.0554 11.9777C30.5174 11.9777 44.8603 11.9777 47.2555 11.9777C47.3509 11.9777 47.4368 12.014 47.4941 12.0684C47.5609 12.1319 47.5984 12.2136 47.5984 12.2953C47.5984 15.09 47.5984 35.1163 47.5984 35.1163ZM17.2625 43.6822C17.2625 42.43 17.2625 40.4066 17.2625 40.4066H13.8175C11.9185 40.4066 10.3732 41.8765 10.3732 43.6822C10.3732 45.488 11.9185 46.9579 13.8175 46.9579C15.7164 46.9579 17.2625 45.488 17.2625 43.6822ZM47.5984 43.6822C47.5984 42.43 47.5984 40.4066 47.5984 40.4066H44.1541C42.2552 40.4066 40.7091 41.8765 40.7091 43.6822C40.7091 45.488 42.2552 46.9579 44.1541 46.9579C46.0531 46.9579 47.5984 45.488 47.5984 43.6822ZM12.9109 6.68764C12.825 6.68764 12.749 6.65134 12.6917 6.5969C12.6249 6.54245 12.5963 6.46075 12.5963 6.37909C12.5963 5.27206 12.5963 1.40654 12.5963 0.299513C12.5963 0.217847 12.5581 0.145184 12.5009 0.0907399C12.4436 0.036296 12.3676 0 12.2817 0C11.2988 0 8.32119 0 7.34784 0C7.26196 0 7.17622 0.036296 7.11897 0.0907399C7.06171 0.145184 7.03323 0.217847 7.03323 0.299513C7.03323 1.40654 7.03323 5.27206 7.03323 6.37909C7.03323 6.46075 6.99506 6.54245 6.9378 6.5969C6.88055 6.65134 6.79407 6.68764 6.70818 6.68764C5.54398 6.68764 1.47881 6.68764 0.314609 6.68764C0.228725 6.68764 0.152682 6.7149 0.0954265 6.76934C0.028628 6.82378 0 6.90531 0 6.98697C0 7.91252 0 10.7437 0 11.6783C0 11.76 0.028628 11.8325 0.0954265 11.8869C0.152682 11.9414 0.228725 11.9777 0.314609 11.9777C1.47881 11.9777 5.54398 11.9777 6.70818 11.9777C6.79407 11.9777 6.88055 12.0049 6.9378 12.0684C6.99506 12.1229 7.03323 12.1955 7.03323 12.2772V18.3568C7.03323 18.4384 7.06171 18.5201 7.11897 18.5746C7.17622 18.629 7.26196 18.6563 7.34784 18.6563C8.32119 18.6563 11.2988 18.6563 12.2817 18.6563C12.3676 18.6563 12.4436 18.629 12.5009 18.5746C12.5581 18.5201 12.5963 18.4384 12.5963 18.3568C12.5963 17.2497 12.5963 13.3842 12.5963 12.2772C12.5963 12.1955 12.6249 12.1229 12.6917 12.0684C12.749 12.0049 12.825 11.9777 12.9109 11.9777C14.0751 11.9777 18.1403 11.9777 19.3045 11.9777C19.3904 11.9777 19.4673 11.9414 19.5341 11.8869C19.5914 11.8325 19.6198 11.76 19.6198 11.6783C19.6198 10.7437 19.6198 7.91252 19.6198 6.98697C19.6198 6.90531 19.5914 6.82378 19.5341 6.76934C19.4673 6.7149 19.3904 6.68764 19.3045 6.68764C18.1403 6.68764 14.0751 6.68764 12.9109 6.68764Z" fill="black"/>
</svg>
