<svg width="56" height="54" viewBox="0 0 56 54" fill="none" xmlns="http://www.w3.org/2000/svg">
<path fill-rule="evenodd" clip-rule="evenodd" d="M53.3434 48.1102C53.3434 47.9288 53.1526 47.7836 52.9617 47.7836C49.0492 47.7836 11.5466 47.7836 7.53869 47.7836C7.34784 47.7836 7.25241 47.9288 7.25241 48.1102C7.25241 49.0539 7.25241 51.8125 7.25241 52.7562C7.25241 52.9377 7.34784 53.0828 7.53869 53.0828C11.5466 53.0828 49.0492 53.0828 52.9617 53.0828C53.1526 53.0828 53.3434 52.9377 53.3434 52.7562V48.1102ZM53.3434 33.7189C53.3434 33.5374 53.1526 33.3923 52.9617 33.3923C49.0492 33.3923 11.5466 33.3923 7.53869 33.3923C7.34784 33.3923 7.25241 33.5374 7.25241 33.7189V38.3649C7.25241 38.5464 7.34784 38.6915 7.53869 38.6915C11.5466 38.6915 49.0492 38.6915 52.9617 38.6915C53.1526 38.6915 53.3434 38.5464 53.3434 38.3649C53.3434 37.4212 53.3434 34.6626 53.3434 33.7189ZM25.6697 18.5744C25.7652 18.4746 25.956 18.4202 26.0514 18.4202C28.2462 18.4202 46.5681 18.4202 46.5681 18.4202C48.2858 18.4202 49.7172 17.0773 49.7172 15.4077C49.7172 13.7472 48.2858 12.395 46.5681 12.395C46.5681 12.395 30.2502 12.395 27.6737 12.395C27.5783 12.395 27.4828 12.3587 27.4828 12.3043C27.3874 12.2408 27.3874 12.1591 27.3874 12.0774C27.3874 11.1338 27.3874 8.36629 27.3874 7.4226C27.3874 7.34093 27.3874 7.25926 27.4828 7.19575C27.4828 7.1413 27.5783 7.10501 27.6737 7.10501C30.2502 7.10501 46.5681 7.10501 46.5681 7.10501C51.4349 7.10501 55.3474 10.8253 55.3474 15.4077C55.3474 19.9991 51.4349 23.7194 46.5681 23.7194C46.5681 23.7194 24.8109 23.7103 20.8984 23.7012C20.803 23.7012 20.7076 23.6377 20.7076 23.547C20.6121 23.4653 20.6121 23.3655 20.7076 23.2929C21.8527 22.2131 25.0017 19.264 25.6697 18.5744ZM12.8826 6.67842C12.7872 6.67842 12.6917 6.6512 12.6917 6.58768C12.5963 6.52416 12.5963 6.4425 12.5963 6.36083C12.5963 5.22658 12.5963 1.45184 12.5963 0.31759C12.5963 0.235924 12.5009 0.154258 12.5009 0.0907399C12.4054 0.036296 12.31 0 12.2146 0C11.2603 0 8.30211 0 7.34784 0C7.25241 0 7.15699 0.036296 7.06156 0.0907399C7.06156 0.154258 6.96613 0.235924 6.96613 0.31759C6.96613 1.45184 6.96613 5.22658 6.96613 6.36083C6.96613 6.4425 6.96613 6.52416 6.87071 6.58768C6.87071 6.6512 6.77528 6.67842 6.67985 6.67842H0.286279C0.190853 6.67842 0.0954265 6.71468 0.0954265 6.7782C0 6.83264 0 6.91431 0 7.00505C0 7.94875 0 10.7073 0 11.651C0 11.7418 0 11.8234 0.0954265 11.8779C0.0954265 11.9414 0.190853 11.9777 0.286279 11.9777C1.52682 11.9777 5.43931 11.9777 6.67985 11.9777C6.77528 11.9777 6.87071 12.0049 6.87071 12.0684C6.96613 12.1319 6.96613 12.2136 6.96613 12.2953C6.96613 13.4295 6.96613 17.2043 6.96613 18.3385C6.96613 18.4202 7.06156 18.5018 7.06156 18.5654C7.15699 18.6289 7.25241 18.6561 7.34784 18.6561C8.30211 18.6561 11.2603 18.6561 12.2146 18.6561C12.31 18.6561 12.4054 18.6289 12.5009 18.5654C12.5009 18.5018 12.5963 18.4202 12.5963 18.3385C12.5963 17.2043 12.5963 13.4295 12.5963 12.2953C12.5963 12.2136 12.5963 12.1319 12.6917 12.0684C12.6917 12.0049 12.7872 11.9777 12.8826 11.9777C14.1231 11.9777 18.0356 11.9777 19.2762 11.9777C19.3716 11.9777 19.467 11.9414 19.467 11.8779C19.5624 11.8234 19.5624 11.7418 19.5624 11.651C19.5624 10.7073 19.5624 7.94875 19.5624 7.00505C19.5624 6.91431 19.5624 6.83264 19.467 6.7782C19.467 6.71468 19.3716 6.67842 19.2762 6.67842C18.0356 6.67842 14.1231 6.67842 12.8826 6.67842Z" fill="black"/>
</svg>
