<svg width="50" height="47" viewBox="0 0 50 47" fill="none" xmlns="http://www.w3.org/2000/svg">
<path fill-rule="evenodd" clip-rule="evenodd" d="M5.53474 37.9383V34.7988C5.53474 33.3378 4.29419 32.149 2.76737 32.149C1.24054 32.149 0 33.3378 0 34.7988V46.8943H12.6917C14.2185 46.8943 15.4591 45.7057 15.4591 44.2447C15.4591 42.7838 14.2185 41.6042 12.6917 41.6042H9.54265L19.7533 31.886C20.803 30.8516 20.803 29.1728 19.7533 28.1384C18.6082 27.113 16.8905 27.113 15.8408 28.1474L5.53474 37.9383ZM39.7929 5.29925L29.5822 15.0175C28.5325 16.0519 28.5325 17.7214 29.5822 18.7559C30.7273 19.7903 32.445 19.7813 33.4947 18.7468L43.8008 8.95596V12.1047C43.8008 13.5657 45.0413 14.7452 46.5681 14.7452C48.095 14.7452 49.3355 13.5657 49.3355 12.1047V0H36.6438C35.117 0 33.8764 1.18862 33.8764 2.64953C33.8764 4.11045 35.117 5.29925 36.6438 5.29925H39.7929Z" fill="black"/>
</svg>
