<svg width="57" height="47" viewBox="0 0 57 47" fill="none" xmlns="http://www.w3.org/2000/svg">
<path fill-rule="evenodd" clip-rule="evenodd" d="M13.7414 46.1684C5.53474 41.459 0 32.8751 0 23.0843C0 13.2844 5.53474 4.7094 13.7414 0L16.5088 4.60948C10.0198 8.41148 5.63016 15.2625 5.63016 23.0843C5.63016 30.897 10.0198 37.7569 16.5088 41.5498L13.7414 46.1684ZM40.1746 41.5498C46.6636 37.7569 51.0532 30.897 51.0532 23.0843C51.0532 15.2625 46.6636 8.41148 40.1746 4.60948L42.9419 0C51.1486 4.7094 56.6833 13.2844 56.6833 23.0843C56.6833 32.8751 51.1486 41.459 42.9419 46.1684L40.1746 41.5498ZM19.467 36.6407C14.6957 33.8096 11.5466 28.7918 11.5466 23.0843C11.5466 17.3677 14.6957 12.3497 19.467 9.51865L22.1389 14.1372C19.0853 16.0518 17.0813 19.3458 17.0813 23.0843C17.0813 26.8228 19.0853 30.1075 22.1389 32.0221L19.467 36.6407ZM34.5444 32.0221C37.598 30.1075 39.602 26.8228 39.602 23.0843C39.602 19.3458 37.598 16.0518 34.5444 14.1372L37.2163 9.51865C41.9877 12.3497 45.1367 17.3677 45.1367 23.0843C45.1367 28.7918 41.9877 33.8096 37.2163 36.6407L34.5444 32.0221ZM28.3417 18.3112C31.109 18.3112 33.3993 20.4528 33.3993 23.0843C33.3993 25.7157 31.109 27.8481 28.3417 27.8481C25.5743 27.8481 23.2841 25.7157 23.2841 23.0843C23.2841 20.4528 25.5743 18.3112 28.3417 18.3112Z" fill="black"/>
</svg>
