<svg width="57" height="54" viewBox="0 0 57 54" fill="none" xmlns="http://www.w3.org/2000/svg">
<path fill-rule="evenodd" clip-rule="evenodd" d="M28.2462 0C12.6917 0 0 12.0593 0 26.9134C0 41.7675 12.6917 53.8359 28.2462 53.8359C43.8962 53.8359 56.5879 41.7675 56.5879 26.9134C56.5879 12.0593 43.8962 0 28.2462 0ZM28.2462 5.29925C40.8425 5.29925 51.0532 14.9811 51.0532 26.9134C51.0532 38.8457 40.8425 48.5368 28.2462 48.5368C15.7454 48.5368 5.53474 38.8457 5.53474 26.9134C5.53474 14.9811 15.7454 5.29925 28.2462 5.29925ZM18.3219 29.563H41.0334V24.2729H15.5545V29.563H18.3219Z" fill="black"/>
</svg>
