<svg width="47" height="54" viewBox="0 0 47 54" fill="none" xmlns="http://www.w3.org/2000/svg">
<path fill-rule="evenodd" clip-rule="evenodd" d="M40.1746 21.6688C40.27 21.6688 40.3654 21.7141 40.4608 21.8049C40.5563 21.8865 40.5563 21.9953 40.5563 22.1132C40.5563 25.2619 40.5563 44.272 40.5563 47.4206C40.5563 47.6656 40.3654 47.8653 40.1746 47.8653C36.2621 47.8653 9.92436 47.8653 6.01187 47.8653C5.91644 47.8653 5.82102 47.8199 5.72559 47.7382C5.63016 47.6566 5.63016 47.5386 5.63016 47.4206C5.63016 44.272 5.63016 25.2619 5.63016 22.1132C5.63016 21.8682 5.82102 21.6688 6.01187 21.6688C7.34784 21.6688 10.7832 21.6688 11.9283 21.6688C12.1192 21.6688 12.2146 21.5236 12.2146 21.3512C12.2146 20.4075 12.2146 17.6398 12.2146 16.6961C12.2146 16.5237 12.1192 16.3786 11.9283 16.3786H3.33993C2.48109 16.3786 1.62225 16.7052 0.954265 17.295C0.381706 17.8757 0 18.6743 0 19.5C0 23.1296 0 46.4044 0 50.034C0 50.8688 0.381706 51.6583 0.954265 52.2481C1.62225 52.8288 2.48109 53.1645 3.33993 53.1645C7.63412 53.1645 38.5523 53.1645 42.8465 53.1645C43.7053 53.1645 44.5642 52.8288 45.2322 52.2481C45.8047 51.6583 46.1864 50.8688 46.1864 50.034C46.1864 46.4044 46.1864 23.1296 46.1864 19.5C46.1864 18.6743 45.8047 17.8757 45.2322 17.295C44.5642 16.7052 43.7053 16.3786 42.8465 16.3786C42.8465 16.3786 35.8804 16.3786 34.2581 16.3786C34.1627 16.3786 34.0673 16.4148 34.0673 16.4693C33.9718 16.5328 33.9718 16.6145 33.9718 16.6961C33.9718 17.6398 33.9718 20.4075 33.9718 21.3512C33.9718 21.4328 33.9718 21.5145 34.0673 21.578C34.0673 21.6325 34.1627 21.6688 34.2581 21.6688C35.4032 21.6688 38.8386 21.6688 40.1746 21.6688ZM23.0932 0C23.1886 0 23.2841 0.036296 23.3795 0.0907399C24.9063 1.59702 33.8764 10.0721 33.8764 10.0721C34.9261 11.1066 34.9261 12.7853 33.8764 13.8198C32.8267 14.7362 31.3953 14.8359 30.2502 14.1281V14.0828L30.1548 14.0737C30.0593 13.9921 29.9639 13.9105 29.8685 13.8198L26.2423 10.3807C26.2423 10.3172 26.1469 10.299 26.0514 10.3353C25.956 10.3716 25.8606 10.4532 25.8606 10.5439C25.8606 13.4294 25.8606 26.3326 25.8606 26.3326C25.8606 27.7936 24.62 28.9824 23.0932 28.9824C21.5664 28.9824 20.3258 27.8028 20.3258 26.3419C20.3258 26.3419 20.3258 13.4567 20.3258 10.5802C20.3258 10.4895 20.2304 10.3987 20.135 10.3624C20.0396 10.3261 19.9441 10.3535 19.8487 10.417L16.3179 13.8198C16.2225 13.9105 16.1271 13.9921 16.0317 14.0737L15.9362 14.1191V14.1281C14.7911 14.8359 13.3597 14.7362 12.4054 13.8198C11.2603 12.7853 11.2603 11.1066 12.4054 10.0721C12.4054 10.0721 21.2801 1.59702 22.9024 0.0907399C22.9024 0.036296 22.9978 0 23.0932 0Z" fill="black"/>
</svg>
