<svg width="54" height="54" viewBox="0 0 54 54" fill="none" xmlns="http://www.w3.org/2000/svg">
<path fill-rule="evenodd" clip-rule="evenodd" d="M25.3454 0.000985325C25.4504 -0.00808867 25.5553 0.0463907 25.6125 0.128057C25.6602 0.218797 25.6603 0.327614 25.603 0.418353C22.8356 4.34739 21.2229 9.06594 21.2229 14.1474C21.2229 27.7856 32.865 38.865 47.2171 38.865C49.2401 38.865 51.2155 38.6381 53.1145 38.2207C53.2195 38.2026 53.3243 38.2389 53.3911 38.3115C53.4579 38.3932 53.477 38.502 53.4293 38.6018C48.8107 47.4126 39.2299 53.4741 28.1795 53.4741C12.625 53.4741 0 41.4601 0 26.6695C0 12.7863 11.1173 1.36208 25.3454 0.000985325Z" fill="black"/>
</svg>
