<svg width="61" height="54" viewBox="0 0 61 54" fill="none" xmlns="http://www.w3.org/2000/svg">
<path fill-rule="evenodd" clip-rule="evenodd" d="M27.292 30.3344C26.9103 31.3961 26.0514 32.1401 25.0972 32.8478C23.5703 33.9458 21.7572 34.8896 19.9441 36.042C15.7454 38.8096 11.7375 42.548 11.7375 50.524V53.1645H60.9775V50.524C60.9775 42.548 57.065 38.8096 52.7709 36.042C50.9578 34.8896 49.1446 33.9458 47.6178 32.8478C46.6636 32.1401 45.8047 31.3961 45.423 30.3344C45.5184 30.1802 45.6139 29.908 45.8047 29.7265C46.1864 29.1095 46.759 28.4561 47.3315 27.712C49.1446 25.4163 51.0532 22.4855 51.0532 18.4838C51.0532 10.29 44.3733 4.47358 36.4529 4.41914H36.3575C28.4371 4.41914 21.6618 10.2628 21.6618 18.4838C21.6618 22.4945 23.5703 25.4255 25.3834 27.7303C25.956 28.4652 26.5286 29.1186 26.9103 29.7265C27.1011 29.908 27.1966 30.1802 27.292 30.3344ZM17.5585 47.8745C18.5127 43.0109 22.0435 40.9964 25.1926 39.1362C28.7234 37.0492 31.777 34.9712 32.7313 31.5231C33.2084 30.0531 32.8267 28.447 31.4907 26.7048C30.1548 24.8265 27.292 22.4673 27.292 18.4838C27.292 13.3661 31.3953 9.70917 36.3575 9.70917H36.4529C41.3197 9.74547 45.5184 13.3842 45.5184 18.4838C45.5184 22.4582 42.5602 24.8174 41.2242 26.7048C39.9837 28.447 39.5066 30.0531 39.9837 31.5231C41.0334 34.9712 43.9916 37.0492 47.5224 39.1362C50.6715 40.9964 54.2023 43.0109 55.1565 47.8745H17.5585ZM12.5963 6.68764V0H7.06156V6.68764H0V11.9777H7.06156V18.6653H12.5963V11.9777H19.6579V6.68764H12.5963Z" fill="black"/>
</svg>
