<svg width="54" height="51" viewBox="0 0 54 51" fill="none" xmlns="http://www.w3.org/2000/svg">
<path fill-rule="evenodd" clip-rule="evenodd" d="M16.2225 26.9407C15.8408 28.0931 14.8865 28.9007 13.8368 29.6629C12.2146 30.8062 10.3061 31.7952 8.49296 33.002C4.10334 35.8694 0 39.744 0 48.0195V50.6692H34.0673L30.5365 45.6331L5.82102 45.37C6.67985 40.1524 10.4969 38.0018 13.8368 36.0328C17.463 33.8732 20.6121 31.7317 21.6618 28.1474C22.1389 26.6502 21.6618 25.0079 20.4213 23.2294C18.8944 21.2422 15.9362 18.765 15.9362 14.5728C15.9362 9.16469 20.3258 5.29925 25.4789 5.29925H25.5743C30.8228 5.33554 35.117 9.18284 35.117 14.5728C35.117 18.7468 32.1587 21.2332 30.7273 23.2204C29.3914 25.008 28.9142 26.6502 29.3914 28.1474C29.7731 29.5358 30.5365 30.7155 31.4907 31.7499L33.2084 33.7733L37.5026 30.3525L35.6895 28.3289C35.3078 27.9206 35.0215 27.467 34.8307 26.9407C34.9261 26.7774 35.117 26.4506 35.2124 26.2419C35.6895 25.6067 36.3575 24.9171 36.9301 24.1459C38.8386 21.7503 40.7471 18.7196 40.7471 14.5728C40.7471 6.08861 33.781 0.0544439 25.6697 0H25.5743C17.2722 0 10.3061 6.05232 10.3061 14.5728C10.3061 18.7378 12.2146 21.7684 14.1231 24.1549C14.7911 24.9262 15.3637 25.6159 15.8408 26.2511C15.9362 26.4598 16.1271 26.7774 16.2225 26.9407ZM47.8087 33.8187H45.8047C41.606 33.8187 38.1706 37.0582 38.1706 41.0508C38.1706 45.0433 41.606 48.2827 45.8047 48.2827C50.0035 48.2827 53.4388 45.0433 53.4388 41.0508C53.4388 40.8784 53.4388 40.706 53.3434 40.5427C53.4388 40.3703 53.4388 40.2068 53.4388 40.0253V23.0843C53.4388 21.6234 52.1983 20.4346 50.6715 20.4346C49.1446 20.4346 47.8087 21.6234 47.8087 23.0843V33.8187ZM47.8087 39.1089H45.8047C44.6596 39.1089 43.8008 39.98 43.8008 41.0508C43.8008 42.1215 44.6596 42.9926 45.8047 42.9926C46.9498 42.9926 47.8087 42.1215 47.8087 41.0508C47.8087 40.8784 47.9041 40.706 47.9041 40.5427C47.9041 40.3703 47.8087 40.2068 47.8087 40.0253V39.1089Z" fill="black"/>
</svg>
